<svg version="1.2" xmlns="http://www.w3.org/2000/svg" viewBox="0 0 1012 101" width="1012" height="101">
	<defs>
		<clipPath clipPathUnits="userSpaceOnUse" id="cp1">
			<path d="m0 0.17h1012v100h-1012z"/>
		</clipPath>
	</defs>
	<style>
		.s0 { fill: #000000 } 
		.s1 { fill: none;stroke: #ffefcc;stroke-linecap: round;stroke-width: 2 } 
	</style>
	<g id="Clip-Path" clip-path="url(#cp1)">
		<g>
			<path class="s0" d="m999.84 33.64l-187.07 1.66c-3.18 0.03-6.06 1.31-8.19 3.37-1.35-21.89-5.78-38.12-10.9-38.06-4.84 0.06-8.81 14.71-10.02 34.88l-14.36 0.23 0.02 2.19c-0.4-0.17-0.87-0.28-1.37-0.28-10.42-0.01-22.27-0.02-35.4-0.01q-2.86 0-5.82 0c-38.98 0.03-88.53 0.17-145.57 0.59-53.23 0.39-95.94 0.56-131.12 0.57q-5.84 0-11.39 0c-86.91-0.07-248.19-1.2-289.81-2.56-38.56-1.26-79.2-3.34-79.2-3.34q-13.69-0.5-27.39-0.98 30.92 18.11 61.82 36.23c52.37 0.73 227.5 0.98 279.87 0.74q27.66-0.13 55.32-0.44 22.82-0.25 45.65-0.63c7.69-0.14 17.31-0.32 35.17-0.65 14.15-0.26 34.17-0.6 66.88-1.07 52.94-0.77 101.16-0.85 139.62-0.93 16.19-0.04 30.66-0.08 43.02-0.17v0.94l14.32-0.23c1.57 20.26 5.82 34.93 10.68 34.87 5.11-0.06 9.24-16.37 10.2-38.28 2.17 2.01 5.07 3.25 8.25 3.22l187.07-1.66c6.6-0.06 11.95-5.51 11.89-12.11l-0.06-6.19c-0.06-6.6-5.51-11.95-12.11-11.89z"/>
			<path class="s1" d="m835.21 50.46h54.48"/>
			<path id="Layer copy" class="s1" d="m920.21 49.46h54.48"/>
		</g>
	</g>
</svg>