<svg width="123" height="48" viewBox="0 0 123 48" fill="none" xmlns="http://www.w3.org/2000/svg">
<g clip-path="url(#clip0_48_186)">
<path d="M122.245 12.0227L119.734 7.80997L94.3981 13.8481L95.1074 12.103L94.8692 11.4553L96.1271 11.3617L98.2657 7.72968L96.4831 2.94948L84.4174 2.98963L83.5207 0.682503L65.9414 0.926062L66.0217 1.89762L62.4458 0L48.4396 0.567414L49.007 1.85748L30.9486 2.22148L37.1046 10.4035L29.0027 4.08431L9.56052 2.54533L0 5.35028L2.86387 17.2178L3.89166 19.3135L1.448 18.5079L10.2109 41.6728L13.6931 36.4885L20.3014 42.7755L40.75 42.4811L45.6908 39.2399L45.7952 41.9244L39.0584 43.2787L42.0481 48L65.374 47.181L70.1569 44.9488L71.2596 43.7203H112.714L112.681 39.81L117.622 40.1338L118.918 33.3302L117.055 29.7651L112.762 29.5216L119.228 28.9595L120.136 23.0418L118.109 19.0726L121.027 18.5855L122.242 12.0227H122.245ZM18.3502 16.273L17.218 14.8893L17.7855 13.6929L25.6544 14.2603L20.2398 14.9535L21.6878 17.0947L18.3502 16.2757V16.273ZM31.6338 32.5139L25.2128 32.1981L28.2961 31.3791L27.6672 29.4895L32.0727 30.7474L32.3243 31.8796L31.6311 32.5085L31.6338 32.5139ZM49.7645 16.3988L54.7696 16.273L55.4307 18.0662L58.6425 17.8762L58.9583 18.4115L50.9636 19.1368L49.7672 16.3988H49.7645ZM59.6168 38.7153L57.6335 39.5022L58.8914 29.179L64.4934 28.4858L65.0929 29.1148L65.2187 30.3433L59.6168 38.7153ZM73.1198 18.3821L75.3226 18.4757L73.6845 20.3011L73.1171 18.3821H73.1198ZM75.1031 38.8411L78.157 34.8451L77.8117 38.0863L78.8181 38.9053L75.1031 38.8411ZM93.5175 33.0813H92.9501L93.6728 31.5075L93.5149 33.0813H93.5175Z" fill="black"/>
<path d="M94.4008 7.19708L96.1619 3.84077L81.9737 3.59453L82.8998 1.61661L66.7015 1.69958L66.7845 2.95753L62.4619 0.690552L49.7029 1.23655L50.166 2.41153L32.8542 3.01909L43.116 16.4684L48.4878 16.3426L46.8096 12.3975L53.5678 12.2289L54.1138 13.824L59.6944 13.6554L59.3598 10.8023L61.4154 10.5935L62.13 11.1395L62.1728 13.6581L67.2796 13.5644L67.21 14.3272H79.233L79.2142 14.4958L90.0836 14.999L91.5958 12.4403L85.132 12.0629L85.7182 11.4339L91.4272 11.351L92.645 8.24626L86.853 8.32923L87.482 7.23722L94.4061 7.1944L94.4008 7.19708ZM45.2867 8.56208L44.6256 7.05255L51.7076 6.95887L52.1171 8.31317L45.2867 8.56476V8.56208ZM60.6793 7.02043H58.6024L58.0992 4.94348L59.6408 4.81768L60.9952 5.92039L60.6793 7.0231V7.02043ZM65.8718 8.49785L67.0039 7.64672L67.0682 9.15894L65.8718 8.49785ZM79.5434 11.5624L73.2483 11.5196L73.4383 10.639L79.522 10.3874L80.3705 8.35599L79.5434 11.5624ZM80.7639 6.82772L74.1717 7.02846L74.6748 5.60189L81.0557 5.55907L81.1386 5.38242L80.7666 6.82505L80.7639 6.82772Z" fill="#038CDB"/>
<path d="M118.468 14.354L119.539 8.50056L91.4941 15.2667L87.4017 16.621L95.4901 17.6916L94.0743 33.7451L89.0076 33.4935L93.1616 20.4618L83.7536 20.3145L87.4338 15.2373L79.3133 15.1115L72.6086 22.3514L70.09 14.7341H57.7191L60.211 19.086L42.1578 20.4618L42.4844 8.69327L38.5178 12.4082L28.446 4.60093L9.56054 3.15295L0.872559 5.79196L3.45272 16.9342L10.4411 20.7107L31.342 26.7542L33.0416 31.9787L31.9095 33.1108L24.4821 32.7334L20.0123 28.5795L26.9365 27.0673L2.76218 19.8301L8.74152 35.8836L11.6375 31.7913L18.7517 38.4638L38.582 38.2737L43.8708 34.7488L43.0143 26.0931L45.9799 25.8415L46.451 42.5561L40.7018 43.7525L41.0177 44.1299L63.2595 42.8719L67.7293 40.7307L80.0065 25.2446L78.4942 37.8348L101.534 37.4574L102.227 35.0031L115.572 35.6963L116.297 30.156L103.488 29.5591L104.339 25.8442L116.458 24.8672L117.339 19.0753L106.132 20.5554L106.635 16.621L118.471 14.354H118.468ZM17.3037 16.3667L13.7145 12.4644L14.9109 9.19109L23.9763 9.82007L30.0198 14.793L22.7799 15.3604L37.9049 20.7803L35.496 20.9649L35.686 21.8161L17.3037 16.3694V16.3667ZM60.0798 39.3764L57.3203 40.3427L54.3895 40.9074L56.148 24.9609L63.04 23.984L65.7166 28.4858L65.936 30.437L60.0825 39.3764H60.0798Z" fill="white"/>
<path d="M36.3149 21.5081L37.324 25.8306L46.6811 25.033L47.1441 40.8135H53.6079L55.5805 24.3612L61.9587 23.4807L59.7746 19.7871L42.9045 21.1735L42.8483 23.1193L37.1125 21.3823L36.3149 21.5081Z" fill="url(#paint0_linear_48_186)"/>
<path d="M59.1056 15.5075L69.5547 15.4219L72.3249 23.818L79.5863 15.6333L86.1331 15.8849L83.3629 19.5785L79.878 19.7042L79.2919 24.993L67.4135 40.1017L62.9651 42.283L45.0298 43.4527L57.4676 41.0652L60.3207 40.1017L66.45 30.9508L66.4071 27.7605L59.1056 15.5075Z" fill="url(#paint1_linear_48_186)"/>
<path d="M81.1815 21.1737L92.1767 21.1309L88.0629 34.1412L93.4346 34.4758L93.3945 34.896L101.031 35.3992L100.779 36.617L79.4177 36.9114L81.1815 21.1737Z" fill="url(#paint2_linear_48_186)"/>
<path d="M89.6152 16.3479L118.827 9.12671L118.112 13.8694L106.236 16.2622L105.605 21.2137L116.351 20.0387L115.805 23.9839L103.635 25.1588L102.583 30.2388L115.468 30.9936L114.965 34.9387L94.7354 33.7209L96.162 17.1428L89.6152 16.3479Z" fill="url(#paint3_linear_48_186)"/>
<path d="M67.4778 2.32868L81.7677 2.20288L81.1387 4.63848L74.0031 4.67863L72.7853 8.03761L79.5864 7.70037L78.9145 9.54714L72.8281 9.75858L72.2393 12.2745L79.0912 12.3708L78.7887 13.6609L68.2004 13.4414L67.4778 2.32868Z" fill="white"/>
<path d="M94.9254 4.56333L82.1771 4.37598L79.8164 13.8186L89.5108 14.4155L90.2361 13.1575L83.7509 12.6838L85.041 10.7969L90.8945 10.4489L91.3361 9.09729L85.5763 9.19096L86.96 6.45293L93.9484 6.42081L94.9254 4.56333Z" fill="white"/>
<path d="M67.6034 10.5133L64.0784 8.62375L67.416 6.29521L67.2903 4.18615L62.3173 1.48022L50.9233 1.85761L54.6999 12.9677L58.6344 12.8098L58.2891 9.94593L61.5304 9.82014L62.9463 10.7328L62.9784 12.7776L67.7319 12.6197L67.6061 10.5107L67.6034 10.5133ZM61.2761 7.86898L57.8448 7.9011L56.8679 4.09247L59.8281 3.99879L61.9988 5.66624L61.2734 7.86898H61.2761Z" fill="white"/>
<path d="M47.3021 15.5504L45.7578 11.6454L52.7462 11.3938L51.9271 9.15893L44.7514 9.38108L43.4292 6.2951L51.424 6.13719L50.3239 3.21179L34.238 3.61862L43.2097 15.644L47.3021 15.5504Z" fill="white"/>
<path d="M1.56567 6.23347L9.79061 3.8407L28.4245 5.26726L38.6649 13.2405L41.8553 10.2616L41.7723 21.5911L25.4027 15.7591L31.4891 15.2559L24.3535 9.21239L14.6191 8.5406L12.8981 12.6543L17.052 17.1856L35.1827 22.7259L36.2748 27.1743L42.1925 26.754L43.0303 34.2669L38.0787 37.5403L18.8158 37.7089L11.4715 30.6564L8.91004 34.2669L3.91566 20.9621L23.8932 26.9655L18.4384 28.2234L24.2706 33.5122L32.2038 33.7638L33.8391 32.1257L31.8665 26.208L11.0513 20.1646L4.1271 16.4309L1.56567 6.23347Z" fill="url(#paint4_linear_48_186)"/>
<path d="M73.0314 40.7574C72.6353 40.5995 72.3542 40.6155 72.3542 40.4041C72.3542 40.2462 72.5336 40.2381 72.5817 40.2381C72.8761 40.2381 72.7851 40.5861 72.9029 40.6476L73.6818 40.5914C73.6818 40.5433 73.7755 39.5128 72.6112 39.5128C71.8965 39.5128 71.5727 39.9892 71.5727 40.5218C71.5727 40.9795 71.8002 41.3328 72.306 41.5175C72.6727 41.646 72.9243 41.6941 72.9243 41.8842C72.9243 42.0929 72.9109 42.1866 72.6433 42.2107C72.3489 42.2375 72.29 41.9109 72.2498 41.6754L71.479 41.7236C71.5031 41.9136 71.4629 42.9762 72.6192 42.9762C73.457 42.9762 73.7353 42.3419 73.7353 41.8199C73.7353 41.3756 73.564 40.9608 73.026 40.7574H73.0314Z" fill="white"/>
<path d="M94.0795 40.7575C93.6807 40.5996 93.4023 40.6157 93.4023 40.4042C93.4023 40.2463 93.5843 40.2383 93.6298 40.2383C93.9243 40.2383 93.8333 40.5862 93.9537 40.6478L94.7326 40.5916C94.7326 40.5434 94.8262 39.5129 93.662 39.5129C92.9473 39.5129 92.6235 39.9894 92.6235 40.522C92.6235 40.9796 92.851 41.3329 93.3568 41.5176C93.7235 41.6461 93.9751 41.6943 93.9751 41.8843C93.9751 42.0931 93.9617 42.1867 93.6941 42.2108C93.3997 42.2376 93.3408 41.9111 93.3006 41.6755L92.5298 41.7237C92.5539 41.9137 92.5137 42.9763 93.67 42.9763C94.5051 42.9763 94.7861 42.342 94.7861 41.8201C94.7861 41.3758 94.6148 40.9609 94.0768 40.7575H94.0795Z" fill="white"/>
<path d="M73.845 40.4766H74.6212V42.9069L75.4482 42.8989V40.4766H76.1843V39.564H73.845V40.4766Z" fill="white"/>
<path d="M78.2506 41.4428C78.5129 41.3465 78.7163 40.9129 78.7163 40.5194C78.7163 39.4997 77.9454 39.5612 77.4931 39.5612C77.1238 39.5612 76.6875 39.5345 76.4653 39.5773V42.9122H77.3004V41.6061C77.3004 41.6061 77.4744 41.5847 77.6002 41.9058C77.7501 42.2913 77.8999 42.6445 78.0017 42.9042H78.9384C78.917 42.864 78.7109 42.3127 78.5129 41.8416C78.4005 41.5686 78.2532 41.4401 78.2532 41.4401L78.2506 41.4428ZM77.2977 40.8674V40.3722C77.5734 40.3722 77.8732 40.3107 77.8732 40.5756C77.8732 40.9717 77.2977 40.8674 77.2977 40.8674Z" fill="white"/>
<path d="M79.9475 41.5524H81.0662V40.7656H79.9475V40.3882H81.1358V39.5558H79.0615V42.9067H81.1974V42.0342H79.9475V41.5524Z" fill="white"/>
<path d="M82.3483 41.5524H83.4671V40.7656H82.3483V40.3882H83.534V39.5558H81.4597V42.9067H83.5983V42.0342H82.3483V41.5524Z" fill="white"/>
<path d="M98.758 41.5524H99.8768V40.7656H98.758V40.3882H99.9464V39.5558H97.8694V42.9067H100.008V42.0342H98.758V41.5524Z" fill="white"/>
<path d="M83.7268 40.482H84.4896V42.9069H85.3167V40.482H86.0634V39.564H83.7268V40.482Z" fill="white"/>
<path d="M89.3529 41.0975C89.6928 40.9637 89.6232 40.6827 89.6232 40.4097C89.6232 40.1233 89.5429 39.7914 89.1949 39.6335C88.9594 39.5264 88.0226 39.5692 87.4231 39.5692L87.4392 42.9041C87.5944 42.9282 87.8754 42.9122 88.2153 42.9122C88.8202 42.9122 89.1949 42.9041 89.468 42.6927C89.6607 42.5428 89.7276 42.1306 89.7276 41.8443C89.7276 41.4428 89.3502 41.0948 89.3502 41.0948L89.3529 41.0975ZM88.8176 40.5863C88.8176 40.9102 88.2903 40.8299 88.2903 40.8299L88.2823 40.3508C88.7373 40.3347 88.8176 40.4498 88.8176 40.5863ZM88.301 42.0637L88.293 41.5846C88.8176 41.5686 88.9059 41.6837 88.9059 41.8202C88.9059 42.144 88.301 42.0637 88.301 42.0637Z" fill="white"/>
<path d="M104.609 41.0975C104.949 40.9637 104.879 40.6827 104.879 40.4097C104.879 40.1233 104.799 39.7914 104.451 39.6335C104.216 39.5264 103.279 39.5692 102.679 39.5692L102.695 42.9041C102.85 42.9282 103.132 42.9122 103.471 42.9122C104.076 42.9122 104.451 42.9041 104.727 42.6927C104.919 42.5428 104.986 42.1306 104.986 41.8443C104.986 41.4428 104.609 41.0948 104.609 41.0948V41.0975ZM104.074 40.5863C104.074 40.9102 103.546 40.8299 103.546 40.8299L103.538 40.3508C103.996 40.3347 104.074 40.4498 104.074 40.5863ZM103.554 42.0637L103.546 41.5846C104.071 41.5686 104.159 41.6837 104.159 41.8202C104.159 42.144 103.554 42.0637 103.554 42.0637Z" fill="white"/>
<path d="M90.7044 39.5637L89.7837 42.9066H90.6188L90.766 42.382L91.5234 42.3928L91.6492 42.904H92.4923L91.6037 39.561H90.7044V39.5637ZM90.9346 41.5523L91.138 40.7119C91.1835 40.8912 91.3441 41.5523 91.3441 41.5523H90.9346Z" fill="white"/>
<path d="M100.136 40.482H100.899V42.9069H101.726V40.482H102.473V39.564H100.136V40.482Z" fill="white"/>
<path d="M105.961 39.5637L105.04 42.9066H105.875L106.022 42.382L106.78 42.3928L106.905 42.904H107.748L106.86 39.561H105.961V39.5637ZM106.191 41.5523L106.394 40.7119C106.44 40.8912 106.598 41.5523 106.598 41.5523H106.188H106.191Z" fill="white"/>
<path d="M97.6955 39.5558H96.6008L95.9076 40.6719L95.8996 39.5692L95.0752 39.5558V42.9067L95.9076 42.9148L95.8915 42.1359L96.2315 41.6568L96.7186 42.9067H97.7169L96.8042 40.8592L97.6955 39.5558Z" fill="white"/>
<path d="M108.723 39.5558H107.893V42.9121H109.887V42.0101H108.723V39.5558Z" fill="white"/>
<path d="M110.947 39.5558H110.117V42.9121H112.111V42.0101H110.947V39.5558Z" fill="white"/>
<path d="M118.029 9.95641L117.558 13.302L105.706 15.7349L104.871 21.9685C105.203 21.7195 105.543 21.4225 105.543 21.4225L106.236 16.2595L118.115 13.8667L118.827 9.12402C118.5 9.46929 118.345 9.61114 118.029 9.95373V9.95641Z" fill="#FF6200"/>
<path d="M115.385 23.4326L103.188 24.629L102.023 30.734L114.865 31.537L114.964 34.9361L115.43 31.0177L102.583 30.2362L103.632 25.1589L115.802 23.9839L116.348 20.0388C116.182 20.3225 116.22 20.1459 115.856 20.6276L115.385 23.4353V23.4326Z" fill="#FF6200"/>
<path d="M105.605 21.2135L104.919 22.0004L115.73 20.796L116.351 20.0386L105.605 21.2135Z" fill="#FF9966"/>
<path d="M118.029 9.95654L117.903 10.1252L118.827 9.12683L89.6152 16.348L96.162 17.1429L94.7354 33.721L95.335 33.7585L96.7187 16.6825L92.5969 16.1633L118.029 9.95654Z" fill="#FF8300"/>
<path d="M27.8384 16.1365L32.7578 15.644L33.2931 16.1793L29.2328 16.6932L27.8384 16.1365Z" fill="#FFE82E"/>
<path d="M38.6462 13.9123L41.3843 11.5516L41.4138 12.4001L39.1789 14.3539L38.6462 13.9123Z" fill="#FFE82E"/>
<path d="M35.1988 24.0001L34.9151 23.1463L16.7068 17.6381L17.5231 18.4865L35.1988 24.0001Z" fill="#FFCC33"/>
<path d="M37.2144 22.8035L36.9468 22.2013L38.6464 21.9818L40.5494 22.4582L37.2144 22.8035Z" fill="#FFFF00"/>
<path d="M42.9261 21.6339L59.4509 20.3439L59.9702 20.9621L42.8003 22.2629L42.9261 21.6339Z" fill="#FFDE2D"/>
<path d="M60.3635 16.6291H69.4931L69.2388 16.0322L59.9861 16.0643L60.3635 16.6291Z" fill="#FFDE2D"/>
<path d="M72.7666 24.7198L79.9745 16.8804L84.6959 16.9768L85.2312 16.4415L79.7202 16.2836L72.4829 24.2461L72.7666 24.7198Z" fill="#FFDE2D"/>
<path d="M81.6419 21.7598L91.4005 21.6982L91.2425 22.263L81.5776 22.3593L81.6419 21.7598Z" fill="#FFDE2D"/>
<path d="M92.6584 16.1901L94.8612 16.4095L117.903 10.8371L118.029 9.95654L92.6584 16.1901Z" fill="#F8DC29"/>
<path d="M104.904 21.8455L115.856 20.6277L115.698 21.3717L105.69 22.3487L104.904 21.8455Z" fill="#F8C528"/>
<path d="M102.152 30.7849L114.943 31.4433L114.849 32.1044L102.543 31.4139L102.152 30.7849Z" fill="#F4A823"/>
<path d="M20.9545 27.1422L5.12287 22.4797L4.85254 21.7571L22.3088 26.8477L20.9545 27.1422Z" fill="#F7AA10"/>
<path d="M91.2371 22.3165L91.8286 22.2898L92.1766 21.1309L81.2323 21.2112L79.4578 36.9007L79.9208 36.8953L81.6418 21.7598L91.4004 21.6983L91.2371 22.3165Z" fill="#FF8300"/>
<path d="M93.4988 34.8639V34.5053L88.0628 34.1412L91.8286 22.2898L91.2371 22.3166L87.2759 34.5909L100.953 35.6615L100.985 35.4099L93.4988 34.8639Z" fill="#FF6200"/>
<path d="M59.2314 15.5503L60.0799 16.083L69.2389 16.0321L69.4932 16.629L69.9964 16.6504L69.5548 15.4219L59.2314 15.5503Z" fill="#FF8300"/>
<path d="M72.325 23.8181L72.6461 24.0911L79.7202 16.2838L85.3221 16.4016L84.6958 16.977L85.3997 16.6077L86.0475 15.9278L79.5863 15.6334L72.325 23.8181Z" fill="#FF8300"/>
<path d="M72.7665 24.72L72.8147 24.6183L72.6702 24.0187L72.3249 23.818L69.9963 16.6504L69.4878 16.6664L72.0091 24.645L72.7665 24.72Z" fill="#FA6E10"/>
<path d="M84.7038 16.9207L83.1354 19.1796L79.4337 19.1528L78.7673 24.9153L67.1432 39.6466L62.7965 41.7049L49.8636 42.8343L57.6282 41.5764L60.765 40.5459L67.0147 31.2639V27.6908L60.112 16.1793L59.2314 15.5503L66.4071 27.7604L66.4981 31.007L60.4064 40.1097L57.4676 41.0652L45.0298 43.4526L62.9651 42.283L67.4135 40.1016L79.2919 24.9929L79.9476 19.6935L83.3682 19.6426L86.0474 15.9277L85.2311 16.4416L84.7038 16.9207Z" fill="#FF6200"/>
<path d="M59.8843 20.8338L61.0566 22.9134L55.1067 23.7646L53.1876 39.6602L47.773 40.1018L47.3314 24.3614L37.7629 25.1804L37.1446 22.6056L36.5825 22.5842L37.3239 25.8308L46.681 25.0332L47.2056 40.688H53.6694L55.5804 24.3614L61.9586 23.4809L60.5026 20.7856L59.8843 20.8338Z" fill="#FF6200"/>
<path d="M36.3791 27.1312L36.4059 27.1339L36.3818 27.0295L36.3604 27.0777L36.3791 27.1312Z" fill="#FF9966"/>
<path d="M41.2585 20.8042L27.8384 16.1364L32.7579 15.6439L24.6373 8.74932L14.1882 7.90088L12.2986 12.6837L16.7523 17.6272L17.0521 17.1856L12.8981 12.6543L14.6593 8.46562L24.3536 9.21235L31.4892 15.2558L25.4028 15.759L41.7724 21.5911L41.8554 10.3552L41.4459 11.4579L41.2585 20.8042Z" fill="#FF6200"/>
<path d="M33.3575 34.6871L34.4281 33.7423L32.7285 26.1251L11.3859 19.83L11.212 19.7336L11.0112 20.2315L11.2387 20.3546L32.0567 26.3981L34.0293 32.3158L32.3913 33.9511L24.4607 33.6995L18.6259 28.4108L23.821 26.9735L22.3088 26.8477L17.5553 28.1405L24.7953 34.6229L33.3575 34.6871Z" fill="#FA6E10"/>
<path d="M42.1925 26.7541L38.0225 27.2519L41.5421 27.5088L42.4843 33.9939L38.1403 37.1415L19.4448 37.2057L11.3858 29.84L9.09739 33.0545L5.09064 22.4583L4.31445 22.006L8.96356 34.184L11.4715 30.6564L18.8158 37.7089L38.0787 37.5403L43.0303 34.2669L42.1925 26.7541Z" fill="#FF6200"/>
<path d="M36.5667 27.1957L36.5961 27.1984L35.3087 22.8197L17.0522 17.1857L16.7524 17.6273L35.1829 23.2613L36.5667 27.1957Z" fill="#F79839"/>
<path d="M5.12295 22.5681L4.85262 21.7571L22.5123 26.8799L23.8934 26.9655L3.93726 20.9996L4.49397 22.378L5.12295 22.5681Z" fill="#FF8300"/>
<path d="M1.62988 6.35945L4.18863 16.5568L11.0245 20.245L11.1743 19.7204L4.71323 16.1795L2.32042 6.6726L9.93779 4.53141L28.2586 5.97939L38.6461 13.9125L41.3842 11.5518L41.8553 10.2618L38.6649 13.2407L28.4245 5.26744L9.85482 3.96667L1.62988 6.35945Z" fill="#FF8300"/>
<path d="M33.8285 32.2006L32.2039 33.7637L24.2707 33.5121L18.7196 28.4214L17.5901 28.3197L24.6267 34.6228L33.1888 34.6871L34.2594 33.7423L33.9704 32.4495L33.8285 32.2006Z" fill="#F49301"/>
<path d="M39.7731 21.9122L39.0183 21.4973L37.3402 21.4197L36.3472 21.5455L36.6469 22.8195L37.2144 22.8034L37.0725 22.1263L39.7731 21.9122Z" fill="#F79839"/>
<path d="M59.8924 19.7979L42.8617 21.2003L42.4843 21.6553L42.4763 21.6955L59.499 20.3331L59.97 20.9621L60.5053 20.9327L59.8924 19.7979Z" fill="#FF8300"/>
<path d="M46.1804 41.8334L56.9962 39.6896L55.0129 40.7762L46.1055 42.6176L46.1804 41.8334Z" fill="black"/>
<path d="M43.6352 26.6015L36.2989 27.2305L34.428 19.5463L42.139 22.2844L42.2006 17.8789L42.5004 8.6611L38.5338 12.3761L38.8496 11.2733L43.0357 7.49683L42.8777 23.1596L35.512 20.8418L36.7405 26.5694L43.571 26.0368L43.6352 26.6015Z" fill="black"/>
<path d="M59.2634 18.7808L62.5662 24.4469L63.2916 24.3826L59.9219 18.5613L59.2634 18.7808Z" fill="black"/>
<path d="M79.123 26.6871L79.8778 19.6613L85.1345 19.5997V20.3224L80.5389 20.3545L79.8457 26.6094L79.123 26.6871Z" fill="black"/>
<path d="M93.571 33.2285L93.4131 34.9281L103.188 35.5356L103.501 35.0646L93.9966 34.4195L94.1224 33.0813L93.571 33.2285Z" fill="black"/>
</g>
<defs>
<linearGradient id="paint0_linear_48_186" x1="49.1381" y1="22.2843" x2="49.1381" y2="37.6018" gradientUnits="userSpaceOnUse">
<stop offset="0.07" stop-color="#FFAE00"/>
<stop offset="0.27" stop-color="#FFA000"/>
<stop offset="0.54" stop-color="#FF8600"/>
<stop offset="0.7" stop-color="#FF8200"/>
<stop offset="0.83" stop-color="#FF7800"/>
<stop offset="0.94" stop-color="#FF6700"/>
<stop offset="1" stop-color="#FF5C00"/>
</linearGradient>
<linearGradient id="paint1_linear_48_186" x1="65.5801" y1="18.7514" x2="65.5801" y2="39.1703" gradientUnits="userSpaceOnUse">
<stop offset="0.07" stop-color="#FFB100"/>
<stop offset="0.24" stop-color="#FFAC00"/>
<stop offset="0.45" stop-color="#FF9D00"/>
<stop offset="0.66" stop-color="#FF8600"/>
<stop offset="0.78" stop-color="#FF8200"/>
<stop offset="0.87" stop-color="#FF7800"/>
<stop offset="0.96" stop-color="#FF6700"/>
<stop offset="1" stop-color="#FF5C00"/>
</linearGradient>
<linearGradient id="paint2_linear_48_186" x1="90.2255" y1="23.0044" x2="90.2255" y2="34.4999" gradientUnits="userSpaceOnUse">
<stop offset="0.07" stop-color="#FFA900"/>
<stop offset="0.27" stop-color="#FFA400"/>
<stop offset="0.49" stop-color="#FF9500"/>
<stop offset="0.66" stop-color="#FF8600"/>
<stop offset="0.78" stop-color="#FF8200"/>
<stop offset="0.87" stop-color="#FF7800"/>
<stop offset="0.96" stop-color="#FF6700"/>
<stop offset="1" stop-color="#FF5C00"/>
</linearGradient>
<linearGradient id="paint3_linear_48_186" x1="104.221" y1="12.1913" x2="104.221" y2="30.9936" gradientUnits="userSpaceOnUse">
<stop offset="0.07" stop-color="#FFCF00"/>
<stop offset="0.2" stop-color="#FFCA00"/>
<stop offset="0.35" stop-color="#FFBB00"/>
<stop offset="0.51" stop-color="#FFA400"/>
<stop offset="0.66" stop-color="#FF8600"/>
<stop offset="0.78" stop-color="#FF8200"/>
<stop offset="0.87" stop-color="#FF7800"/>
<stop offset="0.96" stop-color="#FF6700"/>
<stop offset="1" stop-color="#FF5C00"/>
</linearGradient>
<linearGradient id="paint4_linear_48_186" x1="22.298" y1="7.86077" x2="22.298" y2="32.5326" gradientUnits="userSpaceOnUse">
<stop offset="0.07" stop-color="#FFD700"/>
<stop offset="0.19" stop-color="#FFD200"/>
<stop offset="0.33" stop-color="#FFC300"/>
<stop offset="0.48" stop-color="#FFAC00"/>
<stop offset="0.64" stop-color="#FF8B00"/>
<stop offset="0.66" stop-color="#FF8600"/>
<stop offset="0.78" stop-color="#FF8200"/>
<stop offset="0.87" stop-color="#FF7800"/>
<stop offset="0.96" stop-color="#FF6700"/>
<stop offset="1" stop-color="#FF5C00"/>
</linearGradient>
<clipPath id="clip0_48_186">
<rect width="122.245" height="48" fill="white"/>
</clipPath>
</defs>
</svg>
