<svg version="1.2" xmlns="http://www.w3.org/2000/svg" viewBox="0 0 84 116" width="84" height="116">
	<style>
		.s0 { fill: #ffbc15 } 
	</style>
	<path class="s0" d="m22.52 69.47c3.13 0 6.36-1.22 9-3.39 2.63-2.17 4.45-5.12 5.04-8.19 0.6-3.07-0.07-6.02-1.86-8.19-1.79-2.17-4.55-3.39-7.68-3.39q-1.17 0-2.33 0.22c-1.64 0.31-3.41-1.06-3.09-2.7l1.38-7.1c0.15-0.77 0.73-1.39 1.5-1.53q2.4-0.46 4.79-0.47c6.26 0 11.78 2.44 15.36 6.79 3.58 4.34 4.92 10.23 3.73 16.37-1.2 6.14-4.83 12.03-10.09 16.37-5.27 4.35-11.75 6.79-18 6.79q-2.03-0.01-3.93-0.34c-1.04-0.18-1.67-1.2-1.47-2.23l1.49-7.68c0.27-1.38 1.88-2.08 3.24-1.71q1.39 0.38 2.92 0.38z"/>
	<path class="s0" d="m11.83 94.1c0.21-1.07 1.23-1.77 2.31-1.65q0.63 0.07 1.27 0.12 0.98 0.07 1.98 0.09 0.31-0.04 0.63-0.04 0.31 0 0.61 0.04c8.26-0.15 16.8-3.1 24.12-8.42 8.28-6.02 14.33-14.56 16.81-23.75q0.31-1.13 0.54-2.26 0.02-0.17 0.05-0.34 0.03-0.17 0.08-0.33c0.65-3.57 0.74-7.12 0.26-10.52-0.61-4.33-2.14-8.34-4.5-11.8-2.37-3.46-5.51-6.29-9.26-8.35-3.75-2.05-8.04-3.28-12.61-3.62q-2.84-0.21-5.76 0.04c-1.38 0.12-2.56-1.09-2.29-2.46l1.61-8.29 1.32-6.77c0.3-1.54 1.2-3.01 2.52-4.09 1.32-1.09 2.94-1.7 4.5-1.7 1.56 0 2.95 0.61 3.84 1.7 0.9 1.08 1.23 2.55 0.93 4.09l-1.3 6.72c5.14 0.63 10.01 2.13 14.4 4.49 10.06 5.41 16.71 14.9 18.51 26.42q0.66 4.25 0.43 8.68h6.14c1.56 0 2.95 0.61 3.84 1.7 0.89 1.08 1.23 2.55 0.93 4.09-0.3 1.54-1.21 3.01-2.52 4.09-1.32 1.09-2.94 1.7-4.5 1.7h-5.99c-1.66 5.35-4.23 10.55-7.61 15.38-3.84 5.5-8.65 10.39-14.15 14.41-5.5 4.02-11.58 7.08-17.89 9q-4.73 1.44-9.47 1.99l-1.07 5.53c-0.3 1.54-1.21 3.01-2.53 4.09-1.31 1.09-2.93 1.7-4.49 1.7-1.57 0-2.95-0.61-3.85-1.7-0.89-1.08-1.23-2.55-0.93-4.09z"/>
</svg>